<?xml version="1.0" standalone="no"?>
<!DOCTYPE svg PUBLIC "-//W3C//DTD SVG 20010904//EN"
 "http://www.w3.org/TR/2001/REC-SVG-20010904/DTD/svg10.dtd">
<svg version="1.0" xmlns="http://www.w3.org/2000/svg"
 width="300.000000pt" height="240.000000pt" viewBox="0 0 300.000000 240.000000"
 preserveAspectRatio="xMidYMid meet">
<metadata>
Created by potrace 1.10, written by Peter Selinger 2001-2011
</metadata>
<g transform="translate(0.000000,240.000000) scale(0.100000,-0.100000)"
fill="#000000" stroke="none">
<path d="M532 1579 c-54 -10 -66 -19 -189 -140 -82 -81 -107 -113 -123 -155
-22 -60 -19 -114 8 -176 20 -43 179 -209 235 -245 48 -31 120 -39 188 -23 48
12 65 24 162 119 68 66 116 122 128 149 27 59 27 147 0 200 -24 46 -207 229
-254 253 -41 21 -101 28 -155 18z m123 -28 c53 -25 253 -224 276 -276 41 -90
20 -138 -124 -283 -116 -118 -139 -135 -196 -146 -71 -13 -108 8 -234 133
-126 124 -143 146 -153 209 -10 64 20 114 141 236 144 144 200 169 290 127z"/>
<path d="M526 1507 c9 -5 35 -9 59 -9 24 0 50 4 59 9 9 5 -15 8 -59 8 -44 0
-68 -3 -59 -8z"/>
<path d="M490 1500 c0 -6 12 -15 26 -20 53 -20 164 -6 164 20 0 7 -9 5 -22 -4
-13 -10 -43 -16 -73 -16 -30 0 -60 6 -73 16 -13 9 -22 11 -22 4z"/>
<path d="M500 1441 c-25 -5 -62 -16 -82 -24 -33 -14 -39 -22 -54 -74 -24 -78
-22 -210 2 -283 18 -52 22 -56 69 -73 64 -22 260 -19 317 6 33 14 39 23 54 74
23 75 22 200 0 279 -18 60 -18 61 -69 77 -64 20 -177 29 -237 18z m215 -34
c32 -11 44 -22 62 -59 30 -62 37 -157 18 -233 -27 -103 -72 -129 -218 -128
-99 2 -166 26 -185 67 -21 46 -34 145 -28 198 14 101 57 155 138 169 57 10
163 3 213 -14z"/>
<path d="M569 1360 c-19 -11 -98 -185 -106 -233 -3 -23 0 -37 11 -46 19 -16
39 -3 62 41 22 42 64 39 95 -7 13 -19 30 -37 38 -40 19 -8 41 13 41 40 0 27
-77 214 -98 238 -17 19 -21 20 -43 7z m30 -32 c5 -13 30 -71 54 -130 31 -72
41 -108 33 -108 -7 0 -21 20 -30 45 l-18 45 -53 0 -53 0 -18 -45 c-9 -25 -23
-45 -30 -45 -12 0 -11 7 2 38 30 69 76 177 85 200 4 12 11 22 14 22 3 0 9 -10
14 -22z"/>
<path d="M570 1276 c-5 -14 -14 -37 -20 -51 -9 -24 -8 -25 35 -25 l44 0 -20
47 c-26 60 -26 61 -39 29z"/>
<path d="M294 1278 c20 -28 21 -104 2 -140 -8 -16 -11 -28 -7 -28 14 0 31 51
31 95 0 46 -17 95 -32 95 -5 0 -2 -10 6 -22z"/>
<path d="M860 1274 c-20 -53 -5 -164 22 -164 5 0 2 10 -6 22 -10 13 -16 43
-16 73 0 30 6 60 16 73 9 13 11 22 4 22 -6 0 -15 -12 -20 -26z"/>
<path d="M270 1261 c13 -26 13 -87 -2 -114 -10 -20 -10 -21 5 -8 26 21 22 141
-4 141 -6 0 -5 -8 1 -19z"/>
<path d="M886 1264 c-9 -22 -7 -112 2 -117 4 -3 7 26 7 64 0 38 -1 69 -1 69
-1 0 -5 -7 -8 -16z"/>
<path d="M249 1201 c-2 -27 0 -46 5 -42 9 10 11 79 3 87 -3 3 -7 -17 -8 -45z"/>
<path d="M910 1230 c-3 -34 0 -64 9 -72 4 -5 5 9 3 30 -5 55 -9 70 -12 42z"/>
<path d="M524 931 c-12 -5 -25 -14 -28 -20 -4 -6 9 -4 28 4 45 19 77 19 124 0
35 -15 36 -15 20 1 -20 20 -111 29 -144 15z"/>
<path d="M524 894 c-18 -15 -18 -15 3 -5 12 6 38 11 58 11 20 0 46 -5 58 -11
21 -10 21 -10 3 5 -11 9 -38 16 -61 16 -23 0 -50 -7 -61 -16z"/>
<path d="M1201 1473 c-21 -18 -113 -222 -125 -280 -6 -25 -3 -34 16 -47 26
-18 34 -13 65 44 14 24 29 37 49 40 45 9 58 2 87 -46 20 -33 33 -44 52 -44 44
0 41 36 -10 156 -26 60 -48 115 -49 121 -3 18 -45 73 -55 73 -5 0 -18 -8 -30
-17z m95 -158 c35 -83 64 -153 64 -157 0 -4 -6 -5 -14 -2 -8 3 -23 28 -34 55
l-21 49 -68 0 -69 0 -18 -49 c-9 -27 -24 -52 -32 -55 -20 -8 -20 -7 51 167 33
80 64 145 68 144 5 -1 37 -70 73 -152z"/>
<path d="M1197 1358 c-15 -35 -27 -66 -27 -70 0 -5 25 -8 55 -8 30 0 55 1 55
3 0 5 -51 131 -54 135 -2 1 -15 -26 -29 -60z"/>
<path d="M1501 1443 c-17 -15 -24 -42 -38 -146 -16 -120 -16 -128 0 -144 25
-25 49 -7 68 52 l15 49 25 -44 c33 -59 52 -70 80 -45 12 11 31 40 42 65 l20
45 14 -62 c12 -53 18 -64 39 -69 26 -7 57 20 49 42 -2 7 -11 63 -20 125 -19
129 -36 160 -75 139 -12 -6 -35 -41 -52 -76 -16 -35 -33 -66 -38 -69 -4 -2
-20 23 -35 58 -26 60 -51 97 -65 97 -4 0 -17 -8 -29 -17z m79 -120 l46 -111
53 114 c30 63 57 114 61 114 4 0 15 -51 24 -112 9 -62 19 -128 23 -146 4 -26
2 -31 -9 -27 -11 4 -19 37 -27 108 -7 56 -14 107 -16 112 -3 10 -95 -180 -95
-196 0 -5 -6 -9 -12 -9 -7 0 -31 47 -53 104 -22 58 -43 102 -46 98 -3 -4 -12
-53 -19 -110 -11 -94 -21 -125 -34 -104 -8 13 38 282 49 279 5 -2 30 -53 55
-114z"/>
<path d="M1999 1450 c-9 -5 -22 -24 -29 -42 -7 -18 -23 -55 -35 -83 -12 -27
-31 -74 -41 -102 -17 -49 -17 -54 -2 -69 22 -22 54 -10 70 27 23 53 89 51 123
-3 24 -38 53 -47 71 -23 14 19 9 36 -58 195 -44 106 -61 122 -99 100z m88
-150 c33 -77 57 -143 53 -145 -11 -6 -25 13 -44 58 l-15 38 -62 -3 -61 -3 -18
-45 c-15 -39 -40 -66 -40 -43 0 15 114 283 121 283 3 0 33 -63 66 -140z"/>
<path d="M1995 1338 c-11 -29 -21 -56 -23 -60 -2 -5 20 -8 48 -8 28 0 50 4 48
8 -1 4 -12 31 -22 60 -11 29 -23 52 -26 52 -3 0 -14 -24 -25 -52z"/>
<path d="M2275 1447 c-15 -12 -18 -30 -20 -134 -1 -127 4 -160 31 -170 26 -10
45 21 51 83 3 33 8 61 10 64 3 3 16 -8 30 -25 106 -125 132 -144 157 -116 23
26 24 272 0 295 -20 20 -27 20 -47 -2 -12 -13 -17 -37 -17 -80 0 -34 -2 -62
-5 -62 -3 0 -29 25 -58 57 -67 73 -98 103 -107 103 -3 0 -14 -6 -25 -13z m121
-123 l99 -115 3 115 c2 83 6 116 15 116 9 0 11 -36 10 -141 -2 -78 -4 -143 -6
-145 -1 -2 -48 49 -102 112 l-100 115 -5 -113 c-7 -163 -24 -144 -28 30 -1 78
1 142 6 142 5 0 53 -52 108 -116z"/>
<path d="M2697 1442 c-14 -15 -17 -41 -17 -141 0 -128 8 -161 40 -161 32 0 40
33 40 163 0 107 -2 126 -18 140 -23 21 -25 21 -45 -1z m33 -142 c0 -87 -4
-140 -10 -140 -6 0 -10 53 -10 140 0 87 4 140 10 140 6 0 10 -53 10 -140z"/>
<path d="M1316 1048 c-17 -26 -33 -88 -23 -88 4 0 16 23 28 50 12 28 24 50 28
50 3 0 14 -22 24 -50 19 -53 44 -70 33 -22 -9 35 -39 76 -59 80 -9 2 -23 -7
-31 -20z"/>
<path d="M1592 1050 c-6 -11 -12 -37 -12 -57 0 -28 3 -34 10 -23 5 8 10 29 10
47 0 48 17 49 37 2 l19 -42 18 41 c21 47 36 54 36 18 0 -38 12 -86 20 -81 12
7 1 88 -14 103 -10 10 -18 11 -38 1 -19 -8 -31 -8 -46 0 -26 14 -25 14 -40 -9z"/>
<path d="M1942 1057 c-20 -23 -42 -86 -33 -91 5 -3 18 17 29 45 12 28 25 48
30 45 5 -3 15 -23 22 -46 17 -51 45 -79 34 -34 -16 71 -57 111 -82 81z"/>
<path d="M2203 1051 c-6 -10 -10 -27 -8 -37 2 -11 4 -27 4 -37 2 -40 21 -3 21
41 l1 47 39 -45 40 -45 0 42 c0 35 -3 40 -19 36 -10 -3 -22 0 -25 6 -11 17
-40 13 -53 -8z"/>
<path d="M2550 1006 c0 -31 5 -56 10 -56 6 0 10 22 10 49 0 28 -4 53 -10 56
-6 4 -10 -15 -10 -49z"/>
<path d="M2320 998 c0 -32 -3 -58 -7 -57 -5 0 -24 20 -45 44 l-36 44 -4 -49
c-3 -49 4 -65 16 -35 5 14 9 14 38 -1 30 -15 32 -15 45 2 15 21 17 72 3 94 -7
11 -10 -2 -10 -42z"/>
<path d="M1677 985 c-17 -38 -19 -39 -33 -21 -8 11 -14 26 -14 33 0 7 -4 13
-10 13 -5 0 -10 -16 -10 -35 0 -34 1 -35 39 -35 22 0 48 -3 58 -6 11 -4 14 -3
6 3 -6 4 -13 26 -15 48 l-3 40 -18 -40z"/>
<path d="M1318 962 c-4 -15 1 -18 29 -18 24 0 32 4 28 14 -3 7 -5 16 -5 18 0
2 -11 4 -24 4 -14 0 -26 -7 -28 -18z"/>
<path d="M1936 964 c-3 -9 -6 -16 -6 -17 0 -1 15 -3 34 -4 29 -1 33 1 29 18
-6 23 -48 26 -57 3z"/>
<path d="M0 20 c0 -7 507 -10 1500 -10 993 0 1500 3 1500 10 0 7 -507 10
-1500 10 -993 0 -1500 -3 -1500 -10z"/>
</g>
</svg>
